# xmcd CD database file
#
# Track frame offsets:
#	150
#	22685
#	41117
#	65262
#	90945
#	111735
#	131752
#	145665
#	166565
#	184832
#
# Disc length: 2633 seconds
#
# Revision: 0
# Processed by: cddbd v1.5.1PL0 Copyright (c) Steve Scherf et al.
# Submitted via: CDex 1.51
#
DISCID=7c0a470a
DTITLE=種ともこ - うれしいひとこと
DYEAR=1990
DGENRE=JPop
TTITLE0=笑顔で愛してる
TTITLE1=日曜日はパジャマのままで
TTITLE2=好きだと言わせない
TTITLE3=雲に映る歌
TTITLE4=屋上へゆこうよ
TTITLE5=二度と森へは誘わないで
TTITLE6=ゼイタクにKISS＋Ｔｅａｒｓ
TTITLE7=安売り水着を結局買ったアタシの歌
TTITLE8=ダイエット・ゴーゴー
TTITLE9=うれしいひとこと
EXTD=YEAR: 1990
EXTT0=
EXTT1=
EXTT2=
EXTT3=
EXTT4=
EXTT5=
EXTT6=
EXTT7=
EXTT8=
EXTT9=
PLAYORDER=
